<svg xmlns="http://www.w3.org/2000/svg" viewBox="0 0 1200 630" role="img" aria-label="MineWiki">
  <defs>
    <linearGradient id="bg" x1="0" y1="0" x2="1200" y2="630" gradientUnits="userSpaceOnUse">
      <stop stop-color="#f8f9fa"/>
      <stop offset="1" stop-color="#eef6f5"/>
    </linearGradient>
    <linearGradient id="grass" x1="236" y1="116" x2="482" y2="260" gradientUnits="userSpaceOnUse">
      <stop stop-color="#6bd36b"/>
      <stop offset=".52" stop-color="#20b25f"/>
      <stop offset="1" stop-color="#008c7a"/>
    </linearGradient>
    <linearGradient id="dirt" x1="246" y1="252" x2="452" y2="490" gradientUnits="userSpaceOnUse">
      <stop stop-color="#684637"/>
      <stop offset="1" stop-color="#34231f"/>
    </linearGradient>
  </defs>
  <rect width="1200" height="630" fill="url(#bg)"/>
  <rect x="72" y="70" width="1056" height="490" rx="18" fill="#fff" stroke="#d5d9de" stroke-width="3"/>
  <path d="M238 188 360 132l122 56-122 55-122-55Z" fill="url(#grass)"/>
  <path d="M238 188v142l122 62V243L238 188Z" fill="url(#dirt)"/>
  <path d="M482 188v142l-122 62V243l122-55Z" fill="#4b332a"/>
  <path d="M274 189 324 166l29 13-52 23-27-13Zm95 44 51-23 31 14-54 24-28-15Z" fill="#9be27a" opacity=".9"/>
  <path d="M284 263 340 288v73l-56-29v-69Z" fill="#f8f9fa" stroke="#d5d9de" stroke-width="9" stroke-linejoin="round"/>
  <path d="M340 288h55c31 0 58 24 58 55v18H340v-73Z" fill="#fff" stroke="#d5d9de" stroke-width="9" stroke-linejoin="round"/>
  <path d="M365 314h57M365 344h63M302 288l29 13M302 319l29 14" stroke="#00a495" stroke-width="12" stroke-linecap="round"/>
  <path d="M360 243v149M238 188l122 55 122-55" fill="none" stroke="#1d2b23" stroke-opacity=".22" stroke-width="8" stroke-linejoin="round"/>
  <text x="555" y="255" fill="#202122" font-family="Noto Sans KR, Noto Sans, Apple SD Gothic Neo, Malgun Gothic, Arial, sans-serif" font-size="82" font-weight="800">MineWiki</text>
  <text x="558" y="320" fill="#54595d" font-family="Noto Sans KR, Noto Sans, Apple SD Gothic Neo, Malgun Gothic, Arial, sans-serif" font-size="32" font-weight="500">Minecraft 정보를 한국어로 정리하는 위키</text>
  <path d="M558 370h430" stroke="#00a495" stroke-width="8" stroke-linecap="round"/>
  <text x="558" y="430" fill="#202122" font-family="Noto Sans KR, Noto Sans, Apple SD Gothic Neo, Malgun Gothic, Arial, sans-serif" font-size="28" font-weight="700">위키 · 모드 · 서버 · 개발 문서</text>
</svg>
